<?xml version="1.0" encoding="utf-8"?>
<!-- Generator: Adobe Illustrator 24.2.1, SVG Export Plug-In . SVG Version: 6.00 Build 0)  -->
<svg version="1.1" id="Layer_1" xmlns="http://www.w3.org/2000/svg" xmlns:xlink="http://www.w3.org/1999/xlink" x="0px" y="0px"
	 viewBox="0 0 154.4 45.8" style="enable-background:new 0 0 154.4 45.8;" xml:space="preserve">
<style type="text/css">
	.st0{fill:#E70C76;}
	.st1{enable-background:new    ;}
	.st2{fill:#26A0AA;}
</style>
<g>
	<g>
		<path class="st0" d="M58.3,14.5L11,20c-1.2,0.1-2.3-0.8-2.4-1.9l0,0c-0.1-1.2,0.8-2.3,1.9-2.4l47.2-5.4c1.2-0.1,2.3,0.8,2.4,1.9
			l0,0C60.2,13.2,59.3,14.3,58.3,14.5z"/>
		<path class="st0" d="M15.1,5.9L2.6,7.3C1.4,7.4,0.5,8.5,0.7,9.7l0,0c0.1,1.2,1.2,2.1,2.4,1.9l12.4-1.4c1.2-0.1,2.1-1.2,1.9-2.4
			l0,0C17.3,6.5,16.2,5.7,15.1,5.9z"/>
		<path class="st0" d="M56.6,25l-41.8,4.8c-1.2,0.1-2.3-0.8-2.4-1.9l0,0c-0.1-1.2,0.8-2.3,1.9-2.4l41.8-4.8c1.2-0.1,2.3,0.8,2.4,1.9
			l0,0C58.7,23.8,57.8,24.9,56.6,25z"/>
		<path class="st0" d="M53.7,36l-33.6,3.9C19,40,17.9,39.1,17.8,38l0,0c-0.1-1.2,0.8-2.3,1.9-2.4l33.6-3.9c1.2-0.1,2.3,0.8,2.4,1.9
			l0,0C55.8,34.9,55,35.9,53.7,36z"/>
	</g>
	<g class="st1">
		<path class="st2" d="M85,17.2c0.9,8.9-3.4,16.4-10,17.1L66,35.2l1.9-25.9l7.6-0.8C80.8,8,84.4,11.4,85,17.2z M79.5,18.2
			c-0.3-3.4-1.8-5.4-4.6-5.1l-2,0.2l-1.3,16.8l2.5-0.3C78.5,29.4,80.1,23.4,79.5,18.2z"/>
		<path class="st2" d="M86.7,28.2c0-0.3,0-0.8,0-1.1l0.9-13l5.3-0.5l-0.9,12.9c0,0.2,0,0.3,0,0.5c0.1,0.9,0.6,1.4,1.6,1.3
			c1.1-0.1,1.8-0.9,1.9-2.1l0.9-13l5.3-0.5l-1,13.4c-0.3,3.7-3.1,6.3-7.1,6.7C89.6,33.2,87,31.3,86.7,28.2z"/>
		<path class="st2" d="M119.3,18.1c0.6,6.3-2.7,12.3-7.2,12.8c-1.7,0.2-3-0.6-3.9-2l-0.7,9.8l-5.3,0.5l2-26.8l5.1-0.5l-0.1,1.9
			c1-1.5,2.2-2.4,3.8-2.6C116.3,10.8,118.9,13.5,119.3,18.1z M114,19.2c-0.2-2.1-1-3.4-2.2-3.3c-1.5,0.2-2.6,2.4-2.9,5.4
			c0,0.6,0,1,0.1,1.7c0.2,2.2,1,3.4,2.2,3.3C113.1,26.2,114.3,22.6,114,19.2z"/>
		<path class="st2" d="M137.3,16.3c0.6,6.3-2.7,12.3-7.2,12.8c-1.7,0.2-3-0.6-3.9-2l-0.7,9.8l-5.3,0.5l2-26.8l5.1-0.5l-0.1,1.9
			c1-1.5,2.2-2.4,3.8-2.6C134.2,9,136.8,11.7,137.3,16.3z M131.9,17.4c-0.2-2.1-1-3.4-2.2-3.3c-1.5,0.2-2.6,2.4-2.9,5.4
			c0,0.6,0,1,0.1,1.7c0.2,2.2,1,3.4,2.2,3.3C131,24.4,132.2,20.8,131.9,17.4z"/>
		<path class="st2" d="M153,7.4l-1.4,19.1l-5.1,0.5l0.1-1.9c-1,1.6-2.3,2.5-3.6,2.6c-2.6,0.3-4.4-1.5-4.7-4.4
			c-0.5-4.6,2.5-7.5,6.4-7.9c0.8-0.1,1.6-0.1,2.4,0.1l0.3-3.3l-7.7,0.8l0.3-4.3L153,7.4z M147,19.1c-0.5-0.1-0.9,0-1.3,0
			c-1.5,0.2-2.7,1.5-2.5,3.4c0.1,0.8,0.6,1.4,1.5,1.3C146,23.6,146.8,21.8,147,19.1z M147,19.1L147,19.1L147,19.1L147,19.1z"/>
	</g>
</g>
</svg>
